<svg width="23" height="23" viewBox="0 0 23 23" fill="none" xmlns="http://www.w3.org/2000/svg">
<path d="M0.726369 12.0039L4.90484 13.833L16.9464 7.26362L9.68369 15.7371L20.0936 20.4773C20.2485 20.5463 20.4143 20.579 20.5777 20.579C20.7968 20.579 21.0135 20.5197 21.2072 20.4023C21.5437 20.1977 21.7603 19.8418 21.787 19.4484L22.9974 1.29106C23.0253 0.862549 22.8255 0.452192 22.4709 0.210094C22.1174 -0.0307933 21.6635 -0.067108 21.2738 0.114466L0.696108 9.79839C0.265188 10.0018 -0.00595299 10.4363 9.92621e-05 10.9108C0.00736196 11.3853 0.290607 11.8126 0.726369 12.0039ZM7.2628 23L13.0439 20.1965L7.2628 17.4995V23Z" fill="#C6C6C6"/>
</svg>